Coordinates
version=1
nRows=17
nColumns=40
inDegrees=yes

Units are S.I. units (second, meters, Newtons, ...)
Angles are in degrees.

endheader
time	pelvis_tilt	pelvis_list	pelvis_rotation	pelvis_tx	pelvis_ty	pelvis_tz	hip_flexion_r	hip_adduction_r	hip_rotation_r	knee_angle_r	knee_angle_r_beta	ankle_angle_r	subtalar_angle_r	mtp_angle_r	hip_flexion_l	hip_adduction_l	hip_rotation_l	knee_angle_l	knee_angle_l_beta	ankle_angle_l	subtalar_angle_l	mtp_angle_l	lumbar_extension	lumbar_bending	lumbar_rotation	arm_flex_r	arm_add_r	arm_rot_r	elbow_flex_r	pro_sup_r	wrist_flex_r	wrist_dev_r	arm_flex_l	arm_add_l	arm_rot_l	elbow_flex_l	pro_sup_l	wrist_flex_l	wrist_dev_l
     13.57392857	     -7.64496872	     -4.97167221	    -13.21056817	      0.94160045	      0.92449874	      0.43176577	     27.40283481	      0.71539938	     -6.88048111	     18.19357117	     18.19357117	      5.26762743	      8.94146942	      0.47288709	      7.69237499	     -5.94323013	    -12.63526077	     19.82975064	     19.82975064	     19.47025832	    -15.36353029	      4.53306032	    -10.33945134	      7.15600066	      2.31719442	    -13.53160749	    -10.12786795	    -17.01692558	     30.18535989	     46.34255410	      0.00000000	      0.00000000	     39.36263365	    -24.19369256	     -7.17798016	     66.03003667	     47.67257503	      0.00000000	      0.00000000
     13.59285714	     -7.70784577	     -4.69034033	    -13.54128234	      0.94196133	      0.92270426	      0.43573292	     26.91158461	      0.94130483	     -7.17351126	     15.21060350	     15.21060350	      4.83996517	     11.37128088	      1.98497166	      7.08218367	     -5.81055397	    -13.05650150	     19.49911526	     19.49911526	     19.80264023	    -15.10886131	      4.08082034	    -10.19564864	      6.84949314	      2.37576557	    -13.42029821	     -9.89625107	    -16.85956137	     30.49080366	     46.31740953	      0.00000000	      0.00000000	     40.47346130	    -24.44710310	     -7.40165347	     66.86345264	     47.71259057	      0.00000000	      0.00000000
     13.61178571	     -7.68628840	     -4.47932313	    -13.81997827	      0.94275393	      0.92100825	      0.43981963	     26.64224248	      1.10587800	     -7.58488307	     13.54243340	     13.54243340	      4.67325753	     13.37101464	      3.60227261	      6.31597307	     -5.74689942	    -13.57743475	     19.11228866	     19.11228866	     20.06293183	    -14.75629559	      3.37305719	    -10.16795994	      6.67850279	      2.50446091	    -13.28896552	     -9.84125604	    -16.63466235	     30.94830363	     46.28147022	      0.00000000	      0.00000000	     41.37326583	    -24.61341595	     -7.81411471	     67.91578526	     47.76872727	      0.00000000	      0.00000000
     13.63071429	     -7.82999255	     -4.21271685	    -13.98595348	      0.94369075	      0.91907225	      0.44406050	     26.89165096	      1.23132420	     -7.50078480	     13.09224118	     13.09224118	      4.41182441	     13.75600778	      3.91562676	      5.85682026	     -5.65077188	    -13.77964129	     18.92188522	     18.92188522	     20.39406649	    -14.68419858	      3.12248505	     -9.86137854	      6.49892792	      2.49798963	    -12.90676966	     -9.75254744	    -16.55499759	     31.16619660	     46.26916672	      0.00000000	      0.00000000	     42.21951489	    -24.76885547	     -7.99646812	     68.40803055	     47.79657373	      0.00000000	      0.00000000
     13.64964286	     -7.72421533	     -4.12909402	    -14.09002276	      0.94538867	      0.91794639	      0.44852224	     26.71197944	      1.42247499	     -7.54031594	     13.03116463	     13.03116463	      4.14748298	     13.99318510	      3.84670786	      4.80991456	     -5.68783348	    -14.26194841	     18.28704626	     18.28704626	     20.58180498	    -14.04606622	      2.52187098	     -9.85779407	      6.48650278	      2.65869748	    -12.58340101	     -9.76958613	    -16.31340218	     31.43067738	     46.24299454	      0.00000000	      0.00000000	     42.60383033	    -24.55416695	     -8.58872661	     69.50556600	     47.86068406	      0.00000000	      0.00000000
     13.66857143	     -7.71287795	     -4.07438050	    -14.08240877	      0.94738271	      0.91669371	      0.45319666	     26.72735410	      1.65840252	     -7.24839766	     13.54882909	     13.54882909	      3.05669065	     13.10403664	      0.51409061	      3.97382695	     -5.81781640	    -14.61829736	     17.85634542	     17.85634542	     20.46154526	    -13.67682430	      1.26702950	     -9.71668797	      6.55355067	      2.10973471	    -11.80076943	    -10.04646819	    -15.20790409	     31.58699149	     46.16634128	      0.00000000	      0.00000000	     42.17249158	    -24.65565772	    -10.32367781	     71.27737001	     48.01084781	      0.00000000	      0.00000000
     13.68750000	     -7.78073753	     -4.18623740	    -13.87120315	      0.94967051	      0.91589240	      0.45785947	     26.77091360	      1.92199194	     -7.42625318	     14.47946019	     14.47946019	      2.94141784	     12.44576395	      0.20283554	      3.22301311	     -6.11389007	    -14.54366515	     17.47118165	     17.47118165	     20.64568509	    -13.41730502	      1.29731902	     -9.47807728	      6.87905133	      2.07179241	    -11.27983993	    -10.15732412	    -15.17251995	     31.73155717	     46.16241614	      0.00000000	      0.00000000	     42.44439164	    -24.38476573	    -10.26725539	     71.49678886	     48.01239420	      0.00000000	      0.00000000
     13.70642857	     -7.57415038	     -3.91711752	    -13.75241234	      0.95236393	      0.91532382	      0.46290076	     27.08185965	      1.87147456	     -6.49982930	     16.50278174	     16.50278174	      3.10420078	     10.22898205	     -1.19294306	      2.12850472	     -5.97954819	    -14.96069506	     16.91532342	     16.91532342	     20.84183943	    -12.56292195	      1.35049822	     -9.41642476	      6.62449251	      2.17496922	    -10.91634313	    -10.27397471	    -15.09259168	     31.68507333	     46.16253435	      0.00000000	      0.00000000	     42.49636491	    -24.04638532	    -10.54135874	     72.03563009	     48.04019064	      0.00000000	      0.00000000
     13.72535714	     -7.41790653	     -3.93959026	    -13.44712625	      0.95528308	      0.91511969	      0.46807486	     27.02162919	      2.08932600	     -5.96074807	     18.02314657	     18.02314657	      3.20642054	      8.29909491	     -2.24077110	      1.23048255	     -6.24644698	    -15.10137978	     16.73269867	     16.73269867	     20.96962370	    -11.90682098	      1.41244388	     -9.36622534	      6.74934584	      2.15241990	    -10.46851890	    -10.50071201	    -15.08620977	     31.72148919	     46.16505532	      0.00000000	      0.00000000	     42.31450069	    -23.73477637	    -10.79093249	     72.39672375	     48.06148045	      0.00000000	      0.00000000
     13.74428571	     -7.26365742	     -3.98749674	    -13.05551630	      0.95835509	      0.91526274	      0.47335808	     26.82407298	      2.32766678	     -5.49047431	     19.36030661	     19.36030661	      3.36179473	      6.50626559	     -2.96172744	      0.46031608	     -6.60535432	    -15.17485541	     16.77354603	     16.77354603	     20.97687243	    -11.30667769	      1.48332112	     -9.28641792	      6.88847758	      2.01062046	    -10.02116561	    -10.75545980	    -15.12079920	     31.80128640	     46.16848485	      0.00000000	      0.00000000	     41.98841258	    -23.32869815	    -10.97037208	     72.65938584	     48.07514631	      0.00000000	      0.00000000
     13.76321429	     -7.10305803	     -4.02382213	    -12.57084780	      0.96142435	      0.91572016	      0.47868973	     26.43049823	      2.52883578	     -5.26267982	     20.35998870	     20.35998870	      3.68238491	      5.05973783	     -3.37055763	     -0.12668643	     -7.01895776	    -15.11936937	     17.10523526	     17.10523526	     20.86767102	    -10.85975006	      1.51313679	     -9.22272252	      6.99508237	      1.86267723	     -9.52820315	    -11.04628284	    -15.17738170	     31.94195419	     46.17118711	      0.00000000	      0.00000000	     41.51301642	    -22.82087486	    -11.02973467	     72.76823816	     48.07695095	      0.00000000	      0.00000000
     13.78214286	     -7.03140855	     -4.09377750	    -12.08475652	      0.96424839	      0.91628947	      0.48439662	     26.00696537	      3.01434244	     -4.24287616	     21.04951957	     21.04951957	      3.84522714	      2.37667606	     -3.67142871	     -0.26660481	     -7.74063504	    -15.50564797	     18.15318528	     18.15318528	     20.87874303	     -9.77181829	      1.36296799	     -9.07956332	      7.06291609	      1.48765164	     -8.92847223	    -11.31324772	    -15.37734380	     32.07492190	     46.18419052	      0.00000000	      0.00000000	     40.66924700	    -22.35336598	    -11.77926079	     73.27621848	     48.12837640	      0.00000000	      0.00000000
     13.80107143	     -6.86831790	     -4.10078559	    -11.51750434	      0.96699496	      0.91721653	      0.48980538	     25.41053390	      3.15017562	     -4.30174946	     21.57336921	     21.57336921	      4.34827221	      1.63770226	     -3.77399423	     -0.27462811	     -8.31216933	    -15.19350672	     19.45428374	     19.45428374	     20.47839151	     -9.75525609	      1.19479055	     -9.05992264	      7.06908266	      1.30200359	     -8.39847609	    -11.65609644	    -15.48858442	     32.24774543	     46.18924027	      0.00000000	      0.00000000	     40.02694319	    -21.81106576	    -11.83376739	     73.19318313	     48.12456770	      0.00000000	      0.00000000
     13.82000000	     -6.72237840	     -4.14008655	    -10.93851870	      0.96949597	      0.91833877	      0.49523817	     24.68850729	      3.33511817	     -4.43284954	     21.77477448	     21.77477448	      4.87047943	      1.08831827	     -3.70295800	      0.03488109	     -9.00471807	    -14.74088736	     21.25754238	     21.25754238	     19.87051494	     -9.99941368	      0.83897040	     -9.04280834	      7.09358222	      1.14100933	     -7.84068309	    -12.02839057	    -15.60842290	     32.46655891	     46.19310203	      0.00000000	      0.00000000	     39.25789743	    -21.18301478	    -11.83045233	     72.93616147	     48.11293896	      0.00000000	      0.00000000
     13.83892857	     -6.64004560	     -4.17836501	    -10.34069587	      0.97162604	      0.91947704	      0.50064473	     23.94897536	      3.52130828	     -4.70113498	     21.74102069	     21.74102069	      5.42366438	      0.75982499	     -3.52892511	      0.78884338	     -9.78634615	    -14.07659249	     23.65230149	     23.65230149	     18.97938278	    -10.54732406	      0.22806760	     -8.98848915	      7.09152685	      0.96924490	     -7.22244685	    -12.42038510	    -15.74307114	     32.73011900	     46.19633992	      0.00000000	      0.00000000	     38.37669636	    -20.46587208	    -11.81743296	     72.49004912	     48.09625679	      0.00000000	      0.00000000
     13.85785714	     -6.51735913	     -4.23250645	     -9.74210317	      0.97343966	      0.92068145	      0.50594263	     23.12071329	      3.69972488	     -5.10208110	     21.56544933	     21.56544933	      5.99345885	      0.70373763	     -3.39228455	      1.82315676	    -10.59485814	    -13.16159162	     26.53767920	     26.53767920	     17.82548698	    -11.44370300	     -0.46839444	     -9.02045166	      7.09714797	      0.87598531	     -6.49458951	    -12.83962593	    -15.85646616	     33.02429836	     46.19774948	      0.00000000	      0.00000000	     37.44547969	    -19.70166968	    -11.73933236	     71.89091937	     48.07208996	      0.00000000	      0.00000000
     13.87678571	     -6.40071261	     -4.29708097	     -9.13567085	      0.97485810	      0.92182209	      0.51108704	     22.28255046	      3.87905579	     -5.60530849	     21.29188154	     21.29188154	      6.53828938	      0.79852446	     -3.29422716	      3.18666079	    -11.40821318	    -12.00775264	     29.86849592	     29.86849592	     16.38119411	    -12.62485428	     -1.15661602	     -9.07731586	      7.07650193	      0.80861613	     -5.65938913	    -13.28427714	    -15.94589636	     33.34451029	     46.19734362	      0.00000000	      0.00000000	     36.42387222	    -18.87314932	    -11.59556097	     71.11937103	     48.03974504	      0.00000000	      0.00000000
